<svg xmlns="http://www.w3.org/2000/svg" viewBox="0 0 24 24">
<path d="M 10,20 H 6 V 4 h 7 v 5 h 5 v 3.1 l 2,-2 V 8 L 14,2 H 6 C 4.9,2 4,2.9 4,4 v 16 c 0,1.1 0.9,2 2,2 h 4 v -2 m 10.222432,-7.039251 c -2.605983,0 -4.895564,-0.0272 -7.499106,0.02057 -0.724832,0 -1.095115,0.396504 -1.095115,1.1781 v 8.89973 l 2.01968,-2.019683 c 2.280308,-0.02704 4.565923,0.05635 6.842861,-0.04625 0.571611,-0.220079 0.723857,-0.69686 0.750176,-1.23448 0.02586,-0.528399 -0.06991,-1.11557 -0.0087,-1.575553 -0.01526,-1.485775 0.08515,-2.983104 -0.05354,-4.461736 -0.09091,-0.446811 -0.499821,-0.760703 -0.9562,-0.760703 z m -6.775086,6.93209 -0.03712,-0.842791 v -4.420689 h 6.006441 v 4.853938 l -3.824439,0.0029 -1.616951,0.0014"/>
</svg>
