<?xml version="1.0" encoding="UTF-8" standalone="no"?>
<svg
   width="1131.1427"
   height="260"
   version="1.1"
   id="svg90"
   xmlns:xlink="http://www.w3.org/1999/xlink"
   xmlns="http://www.w3.org/2000/svg"
   xmlns:svg="http://www.w3.org/2000/svg"
   xmlns:lucid="lucid">
  <defs
     id="defs91" />
  <g
     transform="translate(-198.5,-100)"
     lucid:page-tab-id="0_0"
     id="g90">
    <path
       d="M 200,100 H 1329.6427 V 320 H 200 Z"
       fill="none"
       id="path1"
       style="stroke-width:0.796637" />
    <use
       xlink:href="#a"
       transform="translate(200,219.19401)"
       id="use1" />
    <use
       xlink:href="#b"
       transform="translate(604.86589,219.19401)"
       id="use2" />
    <use
       xlink:href="#c"
       transform="translate(696.88086,219.19401)"
       id="use3" />
    <use
       xlink:href="#d"
       transform="translate(788.89583,219.19401)"
       id="use4" />
    <use
       xlink:href="#e"
       transform="translate(880.91081,219.19401)"
       id="use5" />
    <g
       fill="none"
       id="g6">
      <path
         d="m 206,360 c -3.3,0 -6,-2.7 -6,-6 v -68 c 0,-3.3 2.7,-6 6,-6 h 448 c 3.3,0 6,2.7 6,6 v 68 c 0,3.3 -2.7,6 -6,6 z"
         id="path5" />
      <path
         d="m 660,280 c 0,5.52 -4.48,10 -10,10 H 440 c -5.52,0 -10,4.48 -10,10 0,-5.52 -4.48,-10 -10,-10 H 210 c -5.52,0 -10,-4.48 -10,-10"
         stroke="#c92d39"
         stroke-width="3"
         id="path6" />
    </g>
    <use
       xlink:href="#f"
       transform="translate(382.56173,339.94444)"
       id="use6" />
    <g
       fill="none"
       id="g8">
      <path
         d="m 754,100 c 3.3,0 6,2.7 6,6 v 68 c 0,3.3 -2.7,6 -6,6 h -68 c -3.3,0 -6,-2.7 -6,-6 v -68 c 0,-3.3 2.7,-6 6,-6 z"
         id="path7" />
      <path
         d="m 680,180 c 0,-5.52 4.48,-10 10,-10 h 20 c 5.52,0 10,-4.48 10,-10 0,5.52 4.48,10 10,10 h 20 c 5.52,0 10,4.48 10,10"
         stroke="#19177c"
         stroke-width="3"
         id="path8" />
    </g>
    <use
       xlink:href="#g"
       transform="translate(661.51235,129.44444)"
       id="use8" />
    <g
       fill="none"
       id="g10">
      <path
         d="m 786,360 c -3.3,0 -6,-2.7 -6,-6 v -68 c 0,-3.3 2.7,-6 6,-6 h 68 c 3.3,0 6,2.7 6,6 v 68 c 0,3.3 -2.7,6 -6,6 z"
         id="path9" />
      <path
         d="m 860,280 c 0,5.52 -4.48,10 -10,10 h -20 c -5.52,0 -10,4.48 -10,10 0,-5.52 -4.48,-10 -10,-10 h -20 c -5.52,0 -10,-4.48 -10,-10"
         stroke="#19967d"
         stroke-width="3"
         id="path10" />
    </g>
    <g
       id="g11">
      <use
         xlink:href="#h"
         transform="translate(777.46914,339.44444)"
         id="use10" />
    </g>
    <g
       fill="none"
       id="g12">
      <path
         d="m 1294,100 c 3.3,0 6,2.7 6,6 v 68 c 0,3.3 -2.7,6 -6,6 H 886 c -3.3,0 -6,-2.7 -6,-6 v -68 c 0,-3.3 2.7,-6 6,-6 z"
         id="path11" />
      <path
         d="m 880,180 c 0,-5.52 4.48,-10 10,-10 h 190 c 5.52,0 10,-4.48 10,-10 0,5.52 4.48,10 10,10 h 190 c 5.52,0 10,4.48 10,10"
         stroke="#834187"
         stroke-width="3"
         id="path12" />
    </g>
    <g
       id="g13">
      <use
         xlink:href="#i"
         transform="translate(1026.5741,129.94444)"
         id="use12" />
    </g>
    <defs
       id="defs90">
      <path
         fill="#c92d39"
         d="m 410,425 v -1909 h 547 v 139 H 590 V 286 H 957 V 425 H 410"
         id="j" />
      <path
         fill="#c92d39"
         d="M 168,279 C 390,318 478,165 536,-11 L 66,-1082 h 192 c 120,299 249,590 362,896 115,-301 235,-597 351,-896 h 190 L 705,0 C 640,164 575,320 430,396 363,432 253,431 168,414 V 279"
         id="k" />
      <path
         fill="#c92d39"
         d="m 615,-1102 c 343,0 484,203 482,560 -1,347 -147,562 -488,562 -336,0 -475,-219 -479,-562 -4,-349 156,-560 485,-560 z m -8,989 c 240,0 301,-180 301,-429 0,-245 -55,-427 -290,-427 -236,0 -299,181 -299,427 0,243 61,429 288,429"
         id="l" />
      <path
         fill="#c92d39"
         d="M 528,20 C 281,20 185,-112 185,-361 v -721 h 180 v 686 c -4,177 45,284 224,277 194,-8 279,-136 279,-336 v -627 h 181 c 3,360 -6,732 6,1082 H 885 c -4,-54 -7,-126 -8,-185 h -3 C 809,-64 714,20 528,20"
         id="m" />
      <path
         fill="#c92d39"
         d="m 839,-1102 c 70,0 148,7 206,17 v 167 c -112,-18 -268,-36 -363,15 -129,69 -208,203 -208,395 V 0 H 294 c -10,-367 32,-789 -52,-1082 h 171 c 21,75 41,161 48,250 h 5 c 67,-152 152,-270 373,-270"
         id="n" />
      <path
         fill="#c92d39"
         d="m 604,-135 c 236,0 291,-142 291,-376 v -838 h 190 v 859 C 1090,-150 943,20 605,20 279,20 142,-144 142,-472 v -877 h 191 v 851 c -3,222 46,363 271,363"
         id="o" />
      <path
         fill="#c92d39"
         d="m 873,-819 c -18,-114 -119,-146 -250,-146 -163,0 -245,50 -245,151 0,151 170,148 294,185 182,54 388,94 388,320 C 1060,-69 871,16 621,20 376,24 211,-49 167,-248 l 159,-31 c 24,133 136,168 295,165 144,-2 270,-31 270,-171 0,-164 -195,-160 -331,-202 -167,-52 -350,-87 -350,-299 0,-218 173,-315 413,-313 220,2 373,77 412,260"
         id="p" />
      <path
         fill="#c92d39"
         d="m 617,-1102 c 355,0 481,238 477,599 H 322 c 5,222 84,388 301,388 144,0 244,-59 284,-166 l 158,45 C 1002,-72 854,20 623,20 281,20 133,-200 133,-548 c 0,-346 151,-554 484,-554 z m 291,461 c -18,-192 -90,-328 -289,-328 -194,0 -287,128 -295,328 h 584"
         id="q" />
      <path
         fill="#c92d39"
         d="m 706,-1102 c 241,0 344,136 343,381 V 0 H 868 v -695 c 1,-168 -57,-273 -220,-268 -190,6 -283,138 -283,336 V 0 H 185 c -3,-360 6,-732 -6,-1082 h 170 c 4,54 7,126 8,185 h 3 c 63,-121 164,-204 346,-205"
         id="r" />
      <path
         fill="#c92d39"
         d="m 1000,-272 c 3,95 12,159 101,161 21,0 41,-3 59,-7 V -6 C 1116,4 1074,10 1021,10 880,12 830,-74 824,-207 h -6 C 748,-76 648,20 446,20 239,20 128,-100 128,-302 c 0,-266 194,-348 454,-354 l 236,-4 c 12,-191 -40,-305 -222,-305 -140,0 -220,47 -232,172 l -188,-17 c 33,-204 181,-292 423,-292 255,0 401,118 401,364 z m -683,-27 c 0,109 63,184 175,182 166,-3 259,-96 306,-217 24,-65 20,-120 20,-200 -232,7 -501,-28 -501,235"
         id="s" />
      <path
         fill="#c92d39"
         d="m 904,-1102 c 199,0 220,177 220,381 V 0 H 956 v -686 c -3,-114 0,-215 -60,-264 -70,-33 -125,-4 -158,71 -26,56 -39,140 -39,252 V 0 H 531 v -686 c -3,-114 -1,-215 -61,-264 -78,-41 -136,24 -157,84 -24,69 -39,159 -39,259 V 0 H 105 c -3,-360 6,-732 -6,-1082 h 149 c 6,50 3,123 8,175 36,-100 83,-195 216,-195 135,0 166,79 196,196 42,-105 93,-196 236,-196"
         id="t" />
      <path
         fill="#c92d39"
         d="M 1044,94 C 928,190 802,283 594,283 290,283 148,70 82,-185 -8,-530 64,-989 208,-1208 c 99,-150 236,-276 464,-276 292,0 429,206 486,450 73,310 31,729 -145,882 -38,32 -81,48 -129,48 -111,1 -154,-78 -141,-195 h -6 c -43,98 -102,195 -235,195 -186,0 -225,-192 -225,-385 0,-224 63,-403 173,-521 46,-50 107,-91 194,-91 117,0 160,79 184,173 h 5 l 32,-151 h 116 c -45,245 -103,479 -136,733 -8,62 -9,140 46,140 75,0 105,-78 129,-152 53,-166 68,-445 22,-636 -33,-142 -99,-259 -202,-326 -112,-74 -280,-58 -384,19 -199,148 -286,441 -286,787 0,288 75,520 251,630 53,33 115,49 183,49 C 776,163 878,88 973,7 Z M 753,-595 c 28,-145 53,-404 -107,-404 -137,0 -173,153 -206,275 -34,123 -44,312 -4,434 14,43 39,80 90,80 118,0 154,-122 191,-226 17,-47 25,-101 36,-159"
         id="u" />
      <path
         fill="#c92d39"
         d="m 648,-963 c -190,6 -283,138 -283,336 V 0 H 185 v -1484 h 181 c -2,197 6,404 -9,587 h 3 c 62,-120 159,-205 339,-205 242,0 351,135 350,381 V 0 H 868 v -695 c 1,-168 -57,-273 -220,-268"
         id="v" />
      <path
         fill="#c92d39"
         d="m 745,-142 h 380 V 0 H 143 V -142 H 565 V -940 H 246 v -142 H 745 Z M 545,-1292 v -192 h 200 v 192 H 545"
         id="w" />
      <path
         fill="#c92d39"
         d="M 914,0 548,-499 416,-401 V 0 H 236 v -1484 h 180 v 927 l 475,-525 h 211 L 663,-617 1125,0 H 914"
         id="x" />
      <g
         id="a">
        <use
           transform="scale(0.01497396)"
           xlink:href="#j"
           id="use13" />
        <use
           transform="matrix(0.01497396,0,0,0.01497396,18.402995,0)"
           xlink:href="#k"
           id="use14" />
        <use
           transform="matrix(0.01497396,0,0,0.01497396,36.80599,0)"
           xlink:href="#l"
           id="use15" />
        <use
           transform="matrix(0.01497396,0,0,0.01497396,55.208984,0)"
           xlink:href="#m"
           id="use16" />
        <use
           transform="matrix(0.01497396,0,0,0.01497396,73.611979,0)"
           xlink:href="#n"
           id="use17" />
        <use
           transform="matrix(0.01497396,0,0,0.01497396,92.014974,0)"
           xlink:href="#o"
           id="use18" />
        <use
           transform="matrix(0.01497396,0,0,0.01497396,110.41797,0)"
           xlink:href="#p"
           id="use19" />
        <use
           transform="matrix(0.01497396,0,0,0.01497396,128.82096,0)"
           xlink:href="#q"
           id="use20" />
        <use
           transform="matrix(0.01497396,0,0,0.01497396,147.22396,0)"
           xlink:href="#n"
           id="use21" />
        <use
           transform="matrix(0.01497396,0,0,0.01497396,165.62695,0)"
           xlink:href="#r"
           id="use22" />
        <use
           transform="matrix(0.01497396,0,0,0.01497396,184.02995,0)"
           xlink:href="#s"
           id="use23" />
        <use
           transform="matrix(0.01497396,0,0,0.01497396,202.43294,0)"
           xlink:href="#t"
           id="use24" />
        <use
           transform="matrix(0.01497396,0,0,0.01497396,220.83594,0)"
           xlink:href="#q"
           id="use25" />
        <use
           transform="matrix(0.01497396,0,0,0.01497396,239.23893,0)"
           xlink:href="#u"
           id="use26" />
        <use
           transform="matrix(0.01497396,0,0,0.01497396,257.64193,0)"
           xlink:href="#t"
           id="use27" />
        <use
           transform="matrix(0.01497396,0,0,0.01497396,276.04492,0)"
           xlink:href="#s"
           id="use28" />
        <use
           transform="matrix(0.01497396,0,0,0.01497396,294.44792,0)"
           xlink:href="#v"
           id="use29" />
        <use
           transform="matrix(0.01497396,0,0,0.01497396,312.85091,0)"
           xlink:href="#m"
           id="use30" />
        <use
           transform="matrix(0.01497396,0,0,0.01497396,331.25391,0)"
           xlink:href="#w"
           id="use31" />
        <use
           transform="matrix(0.01497396,0,0,0.01497396,349.6569,0)"
           xlink:href="#x"
           id="use32" />
        <use
           transform="matrix(0.01497396,0,0,0.01497396,368.0599,0)"
           xlink:href="#s"
           id="use33" />
      </g>
      <path
         fill="#c92d39"
         d="m 108,-723 c 64,-48 152,-85 263,-84 203,2 312,117 505,117 104,0 182,-43 244,-92 v 149 c -68,49 -143,81 -260,80 -172,-2 -344,-117 -504,-115 -112,1 -181,41 -248,88 v -143"
         id="y" />
      <path
         fill="#c92d39"
         d="M 270,425 V 286 H 637 V -1345 H 270 v -139 H 817 V 425 H 270"
         id="z" />
      <path
         fill="#c92d39"
         d="m 558,-647 c -214,-53 -428,-110 -428,-376 0,-239 192,-311 428,-323 v -130 h 128 v 130 c 251,5 384,114 433,321 l -174,33 c -27,-133 -107,-212 -259,-221 v 426 c 233,57 464,118 464,407 0,258 -203,345 -464,360 V 141 H 558 V -20 C 281,-27 115,-149 66,-379 l 170,-37 c 31,161 136,250 322,258 z m 0,-568 c -146,8 -256,54 -256,197 0,156 132,181 256,216 z m 128,1059 c 160,-12 292,-63 292,-227 0,-177 -151,-205 -292,-244 v 471"
         id="A" />
      <g
         id="b">
        <use
           transform="scale(0.01497396)"
           xlink:href="#y"
           id="use34" />
        <use
           transform="matrix(0.01497396,0,0,0.01497396,18.402995,0)"
           xlink:href="#z"
           id="use35" />
        <use
           transform="matrix(0.01497396,0,0,0.01497396,36.80599,0)"
           xlink:href="#A"
           id="use36" />
      </g>
      <path
         fill="#19177c"
         d="m 736,-142 h 380 V 0 H 134 V -142 H 556 V -1342 H 267 v -142 h 469 v 1342"
         id="B" />
      <path
         fill="#19177c"
         d="m 873,-819 c -18,-114 -119,-146 -250,-146 -163,0 -245,50 -245,151 0,151 170,148 294,185 182,54 388,94 388,320 C 1060,-69 871,16 621,20 376,24 211,-49 167,-248 l 159,-31 c 24,133 136,168 295,165 144,-2 270,-31 270,-171 0,-164 -195,-160 -331,-202 -167,-52 -350,-87 -350,-299 0,-218 173,-315 413,-313 220,2 373,77 412,260"
         id="C" />
      <g
         id="c">
        <use
           transform="scale(0.01497396)"
           xlink:href="#B"
           id="use37" />
        <use
           transform="matrix(0.01497396,0,0,0.01497396,18.402995,0)"
           xlink:href="#C"
           id="use38" />
      </g>
      <path
         fill="#19967d"
         d="m 334,-464 v -160 h 560 v 160 H 334"
         id="D" />
      <path
         fill="#19967d"
         d="m 736,-142 h 380 V 0 H 134 V -142 H 556 V -1342 H 267 v -142 h 469 v 1342"
         id="E" />
      <g
         id="d">
        <use
           transform="scale(0.01497396)"
           xlink:href="#D"
           id="use39" />
        <use
           transform="matrix(0.01497396,0,0,0.01497396,18.402995,0)"
           xlink:href="#E"
           id="use40" />
      </g>
      <path
         fill="#834187"
         d="m 114,20 821,-1504 h 178 L 296,20 H 114"
         id="F" />
      <path
         fill="#834187"
         d="m 706,-1102 c 241,0 344,136 343,381 V 0 H 868 v -695 c 1,-168 -57,-273 -220,-268 -190,6 -283,138 -283,336 V 0 H 185 c -3,-360 6,-732 -6,-1082 h 170 c 4,54 7,126 8,185 h 3 c 63,-121 164,-204 346,-205"
         id="G" />
      <path
         fill="#834187"
         d="m 617,-1102 c 355,0 481,238 477,599 H 322 c 5,222 84,388 301,388 144,0 244,-59 284,-166 l 158,45 C 1002,-72 854,20 623,20 281,20 133,-200 133,-548 c 0,-346 151,-554 484,-554 z m 291,461 c -18,-192 -90,-328 -289,-328 -194,0 -287,128 -295,328 h 584"
         id="H" />
      <path
         fill="#834187"
         d="m 873,-819 c -18,-114 -119,-146 -250,-146 -163,0 -245,50 -245,151 0,151 170,148 294,185 182,54 388,94 388,320 C 1060,-69 871,16 621,20 376,24 211,-49 167,-248 l 159,-31 c 24,133 136,168 295,165 144,-2 270,-31 270,-171 0,-164 -195,-160 -331,-202 -167,-52 -350,-87 -350,-299 0,-218 173,-315 413,-313 220,2 373,77 412,260"
         id="I" />
      <path
         fill="#834187"
         d="m 745,-142 h 380 V 0 H 143 V -142 H 565 V -940 H 246 v -142 H 745 Z M 545,-1292 v -192 h 200 v 192 H 545"
         id="J" />
      <path
         fill="#834187"
         d="m 698,-1104 c 312,3 392,244 392,558 0,315 -82,566 -392,566 -169,0 -277,-65 -331,-184 h -5 c 8,188 2,394 4,589 H 185 V -858 c 0,-76 -1,-156 -6,-224 h 175 c 6,52 9,120 10,178 h 4 c 58,-122 150,-202 330,-200 z m -49,991 c 225,0 255,-203 255,-433 0,-225 -32,-419 -253,-419 -236,0 -285,192 -285,441 0,237 53,411 283,411"
         id="K" />
      <path
         fill="#834187"
         d="m 839,-1102 c 70,0 148,7 206,17 v 167 c -112,-18 -268,-36 -363,15 -129,69 -208,203 -208,395 V 0 H 294 c -10,-367 32,-789 -52,-1082 h 171 c 21,75 41,161 48,250 h 5 c 67,-152 152,-270 373,-270"
         id="L" />
      <path
         fill="#834187"
         d="m 615,-1102 c 343,0 484,203 482,560 -1,347 -147,562 -488,562 -336,0 -475,-219 -479,-562 -4,-349 156,-560 485,-560 z m -8,989 c 240,0 301,-180 301,-429 0,-245 -55,-427 -290,-427 -236,0 -299,181 -299,427 0,243 61,429 288,429"
         id="M" />
      <path
         fill="#834187"
         d="M 390,276 C 557,276 656,194 656,25 V -940 H 249 v -142 H 836 V 28 C 832,298 671,425 405,425 298,425 197,409 117,382 V 242 c 80,18 173,34 273,34 z m 246,-1568 v -192 h 200 v 192 H 636"
         id="N" />
      <path
         fill="#834187"
         d="m 631,20 c -350,0 -501,-215 -501,-562 0,-355 162,-560 502,-560 250,0 399,118 446,323 l -192,14 c -23,-124 -109,-196 -262,-196 -242,0 -305,171 -305,415 1,245 61,427 304,427 151,0 248,-77 267,-215 l 190,12 C 1039,-107 883,20 631,20"
         id="O" />
      <path
         fill="#834187"
         d="M 682,16 C 473,16 359,-64 358,-269 V -940 H 190 v -142 h 170 l 58,-282 h 120 v 282 h 432 v 142 H 538 v 652 c 2,114 60,155 182,155 106,0 209,-16 297,-34 V -30 C 921,-4 806,16 682,16"
         id="P" />
      <path
         fill="#834187"
         d="m 141,-911 c 0,-296 172,-459 469,-459 157,0 276,55 356,166 80,111 121,278 121,501 -1,324 -87,567 -297,677 C 656,44 423,30 315,-48 244,-100 198,-174 170,-274 l 172,-27 c 34,111 103,176 238,176 187,0 261,-138 304,-298 16,-65 24,-141 25,-227 -59,121 -177,199 -350,199 -275,0 -418,-184 -418,-460 z m 461,318 c 168,0 289,-96 289,-269 0,-158 -59,-275 -163,-332 -36,-20 -77,-30 -124,-30 -187,0 -280,125 -280,313 0,188 90,318 278,318"
         id="Q" />
      <path
         fill="#834187"
         d="m 148,-1120 c 216,-7 379,-89 463,-229 h 166 v 1204 h 353 V 0 H 157 v -145 h 439 v -1021 c -79,124 -254,184 -448,194 v -148"
         id="R" />
      <g
         id="e">
        <use
           transform="scale(0.01497396)"
           xlink:href="#F"
           id="use41" />
        <use
           transform="matrix(0.01497396,0,0,0.01497396,18.402995,0)"
           xlink:href="#G"
           id="use42" />
        <use
           transform="matrix(0.01497396,0,0,0.01497396,36.80599,0)"
           xlink:href="#H"
           id="use43" />
        <use
           transform="matrix(0.01497396,0,0,0.01497396,55.208984,0)"
           xlink:href="#I"
           id="use44" />
        <use
           transform="matrix(0.01497396,0,0,0.01497396,73.611979,0)"
           xlink:href="#J"
           id="use45" />
        <use
           transform="matrix(0.01497396,0,0,0.01497396,92.014974,0)"
           xlink:href="#F"
           id="use46" />
        <use
           transform="matrix(0.01497396,0,0,0.01497396,110.41797,0)"
           xlink:href="#K"
           id="use47" />
        <use
           transform="matrix(0.01497396,0,0,0.01497396,128.82096,0)"
           xlink:href="#L"
           id="use48" />
        <use
           transform="matrix(0.01497396,0,0,0.01497396,147.22396,0)"
           xlink:href="#M"
           id="use49" />
        <use
           transform="matrix(0.01497396,0,0,0.01497396,165.62695,0)"
           xlink:href="#N"
           id="use50" />
        <use
           transform="matrix(0.01497396,0,0,0.01497396,184.02995,0)"
           xlink:href="#H"
           id="use51" />
        <use
           transform="matrix(0.01497396,0,0,0.01497396,202.43294,0)"
           xlink:href="#O"
           id="use52" />
        <use
           transform="matrix(0.01497396,0,0,0.01497396,220.83594,0)"
           xlink:href="#P"
           id="use53" />
        <use
           transform="matrix(0.01497396,0,0,0.01497396,239.23893,0)"
           xlink:href="#F"
           id="use54" />
        <use
           transform="matrix(0.01497396,0,0,0.01497396,257.64193,0)"
           xlink:href="#G"
           id="use55" />
        <use
           transform="matrix(0.01497396,0,0,0.01497396,276.04492,0)"
           xlink:href="#H"
           id="use56" />
        <use
           transform="matrix(0.01497396,0,0,0.01497396,294.44792,0)"
           xlink:href="#I"
           id="use57" />
        <use
           transform="matrix(0.01497396,0,0,0.01497396,312.85091,0)"
           xlink:href="#J"
           id="use58" />
        <use
           transform="matrix(0.01497396,0,0,0.01497396,331.25391,0)"
           xlink:href="#Q"
           id="use59" />
        <use
           transform="matrix(0.01497396,0,0,0.01497396,349.6569,0)"
           xlink:href="#Q"
           id="use60" />
        <use
           transform="matrix(0.01497396,0,0,0.01497396,368.0599,0)"
           xlink:href="#Q"
           id="use61" />
        <use
           transform="matrix(0.01497396,0,0,0.01497396,386.46289,0)"
           xlink:href="#Q"
           id="use62" />
        <use
           transform="matrix(0.01497396,0,0,0.01497396,404.86589,0)"
           xlink:href="#R"
           id="use63" />
      </g>
      <path
         fill="#c92d39"
         d="m 30,-248 c 87,1 191,-15 191,75 0,78 -77,80 -158,76 V 0 H 30 Z m 33,125 c 57,0 124,11 124,-50 0,-59 -68,-47 -124,-48 v 98"
         id="S" />
      <path
         fill="#c92d39"
         d="m 233,-177 c -1,41 -23,64 -60,70 L 243,0 H 205 L 140,-103 H 63 V 0 H 30 v -248 c 88,3 205,-21 203,71 z m -170,48 c 60,-2 137,13 137,-47 0,-61 -80,-42 -137,-45 v 92"
         id="T" />
      <path
         fill="#c92d39"
         d="m 140,-251 c 81,0 123,46 123,126 C 263,-46 219,4 140,4 59,4 17,-45 17,-125 c 0,-80 42,-126 123,-126 z m 0,227 c 63,0 89,-41 89,-101 0,-60 -29,-99 -89,-99 -61,0 -89,39 -89,99 0,60 28,100 89,101"
         id="U" />
      <path
         fill="#c92d39"
         d="m 240,0 2,-218 C 219,-142 188,-73 162,0 H 139 L 58,-218 59,0 H 30 v -248 h 44 l 77,211 c 21,-75 51,-140 76,-211 h 43 V 0 h -30"
         id="V" />
      <path
         fill="#c92d39"
         d="M 127,-220 V 0 H 93 V -220 H 8 v -28 h 204 v 28 h -85"
         id="W" />
      <g
         id="f">
        <use
           transform="scale(0.0617284)"
           xlink:href="#S"
           id="use64" />
        <use
           transform="matrix(0.0617284,0,0,0.0617284,14.814815,0)"
           xlink:href="#T"
           id="use65" />
        <use
           transform="matrix(0.0617284,0,0,0.0617284,30.802469,0)"
           xlink:href="#U"
           id="use66" />
        <use
           transform="matrix(0.0617284,0,0,0.0617284,48.08642,0)"
           xlink:href="#V"
           id="use67" />
        <use
           transform="matrix(0.0617284,0,0,0.0617284,66.54321,0)"
           xlink:href="#S"
           id="use68" />
        <use
           transform="matrix(0.0617284,0,0,0.0617284,81.358025,0)"
           xlink:href="#W"
           id="use69" />
      </g>
      <path
         fill="#19177c"
         d="m 212,-179 c -10,-28 -35,-45 -73,-45 -59,0 -87,40 -87,99 0,60 29,101 89,101 43,0 62,-24 78,-52 l 27,14 C 228,-24 195,4 139,4 59,4 22,-46 18,-125 c -6,-104 99,-153 187,-111 19,9 31,26 39,46"
         id="X" />
      <path
         fill="#19177c"
         d="m 140,-251 c 81,0 123,46 123,126 C 263,-46 219,4 140,4 59,4 17,-45 17,-125 c 0,-80 42,-126 123,-126 z m 0,227 c 63,0 89,-41 89,-101 0,-60 -29,-99 -89,-99 -61,0 -89,39 -89,99 0,60 28,100 89,101"
         id="Y" />
      <path
         fill="#19177c"
         d="m 240,0 2,-218 C 219,-142 188,-73 162,0 H 139 L 58,-218 59,0 H 30 v -248 h 44 l 77,211 c 21,-75 51,-140 76,-211 h 43 V 0 h -30"
         id="Z" />
      <path
         fill="#19177c"
         d="M 205,0 177,-72 H 64 L 36,0 H 1 l 101,-248 h 38 L 239,0 Z m -38,-99 -47,-123 c -12,45 -31,82 -46,123 h 93"
         id="aa" />
      <path
         fill="#19177c"
         d="M 190,0 58,-211 59,0 H 30 v -248 h 39 l 133,213 -2,-213 h 31 V 0 h -41"
         id="ab" />
      <path
         fill="#19177c"
         d="m 30,-248 c 118,-7 216,8 213,122 C 240,-48 200,0 122,0 H 30 Z m 33,221 c 89,8 146,-16 146,-99 0,-83 -60,-101 -146,-95 v 194"
         id="ac" />
      <g
         id="g">
        <use
           transform="scale(0.0617284)"
           xlink:href="#X"
           id="use70" />
        <use
           transform="matrix(0.0617284,0,0,0.0617284,15.987654,0)"
           xlink:href="#Y"
           id="use71" />
        <use
           transform="matrix(0.0617284,0,0,0.0617284,33.271605,0)"
           xlink:href="#Z"
           id="use72" />
        <use
           transform="matrix(0.0617284,0,0,0.0617284,51.728395,0)"
           xlink:href="#Z"
           id="use73" />
        <use
           transform="matrix(0.0617284,0,0,0.0617284,70.185185,0)"
           xlink:href="#aa"
           id="use74" />
        <use
           transform="matrix(0.0617284,0,0,0.0617284,85,0)"
           xlink:href="#ab"
           id="use75" />
        <use
           transform="matrix(0.0617284,0,0,0.0617284,100.98765,0)"
           xlink:href="#ac"
           id="use76" />
      </g>
      <path
         fill="#19967d"
         d="m 140,-251 c 81,0 123,46 123,126 C 263,-46 219,4 140,4 59,4 17,-45 17,-125 c 0,-80 42,-126 123,-126 z m 0,227 c 63,0 89,-41 89,-101 0,-60 -29,-99 -89,-99 -61,0 -89,39 -89,99 0,60 28,100 89,101"
         id="ad" />
      <path
         fill="#19967d"
         d="m 30,-248 c 87,1 191,-15 191,75 0,78 -77,80 -158,76 V 0 H 30 Z m 33,125 c 57,0 124,11 124,-50 0,-59 -68,-47 -124,-48 v 98"
         id="ae" />
      <path
         fill="#19967d"
         d="M 127,-220 V 0 H 93 V -220 H 8 v -28 h 204 v 28 h -85"
         id="af" />
      <path
         fill="#19967d"
         d="M 33,0 V -248 H 67 V 0 H 33"
         id="ag" />
      <path
         fill="#19967d"
         d="M 190,0 58,-211 59,0 H 30 v -248 h 39 l 133,213 -2,-213 h 31 V 0 h -41"
         id="ah" />
      <g
         id="h">
        <use
           transform="scale(0.0617284)"
           xlink:href="#ad"
           id="use77" />
        <use
           transform="matrix(0.0617284,0,0,0.0617284,17.283951,0)"
           xlink:href="#ae"
           id="use78" />
        <use
           transform="matrix(0.0617284,0,0,0.0617284,32.098765,0)"
           xlink:href="#af"
           id="use79" />
        <use
           transform="matrix(0.0617284,0,0,0.0617284,45.617284,0)"
           xlink:href="#ag"
           id="use80" />
        <use
           transform="matrix(0.0617284,0,0,0.0617284,51.790123,0)"
           xlink:href="#ad"
           id="use81" />
        <use
           transform="matrix(0.0617284,0,0,0.0617284,69.074074,0)"
           xlink:href="#ah"
           id="use82" />
      </g>
      <path
         fill="#834187"
         d="M 205,0 177,-72 H 64 L 36,0 H 1 l 101,-248 h 38 L 239,0 Z m -38,-99 -47,-123 c -12,45 -31,82 -46,123 h 93"
         id="ai" />
      <path
         fill="#834187"
         d="m 233,-177 c -1,41 -23,64 -60,70 L 243,0 H 205 L 140,-103 H 63 V 0 H 30 v -248 c 88,3 205,-21 203,71 z m -170,48 c 60,-2 137,13 137,-47 0,-61 -80,-42 -137,-45 v 92"
         id="aj" />
      <path
         fill="#834187"
         d="M 143,4 C 61,4 22,-44 18,-125 c -5,-107 100,-154 193,-111 17,8 29,25 37,43 l -32,9 c -13,-25 -37,-40 -76,-40 -61,0 -88,39 -88,99 0,61 29,100 91,101 35,0 62,-11 79,-27 v -45 h -74 v -28 h 105 v 86 C 228,-13 192,4 143,4"
         id="ak" />
      <path
         fill="#834187"
         d="M 232,-93 C 231,-28 192,4 128,4 67,4 28,-28 28,-90 v -158 h 33 c 8,89 -33,224 67,224 102,0 64,-133 71,-224 h 33 v 155"
         id="al" />
      <path
         fill="#834187"
         d="m 240,0 2,-218 C 219,-142 188,-73 162,0 H 139 L 58,-218 59,0 H 30 v -248 h 44 l 77,211 c 21,-75 51,-140 76,-211 h 43 V 0 h -30"
         id="am" />
      <path
         fill="#834187"
         d="m 30,0 v -248 h 187 v 28 H 63 v 79 h 144 v 27 H 63 v 87 H 225 V 0 H 30"
         id="an" />
      <path
         fill="#834187"
         d="M 190,0 58,-211 59,0 H 30 v -248 h 39 l 133,213 -2,-213 h 31 V 0 h -41"
         id="ao" />
      <path
         fill="#834187"
         d="M 127,-220 V 0 H 93 V -220 H 8 v -28 h 204 v 28 h -85"
         id="ap" />
      <g
         id="i">
        <use
           transform="scale(0.0617284)"
           xlink:href="#ai"
           id="use83" />
        <use
           transform="matrix(0.0617284,0,0,0.0617284,14.814815,0)"
           xlink:href="#aj"
           id="use84" />
        <use
           transform="matrix(0.0617284,0,0,0.0617284,30.802469,0)"
           xlink:href="#ak"
           id="use85" />
        <use
           transform="matrix(0.0617284,0,0,0.0617284,48.08642,0)"
           xlink:href="#al"
           id="use86" />
        <use
           transform="matrix(0.0617284,0,0,0.0617284,64.074074,0)"
           xlink:href="#am"
           id="use87" />
        <use
           transform="matrix(0.0617284,0,0,0.0617284,82.530864,0)"
           xlink:href="#an"
           id="use88" />
        <use
           transform="matrix(0.0617284,0,0,0.0617284,97.345679,0)"
           xlink:href="#ao"
           id="use89" />
        <use
           transform="matrix(0.0617284,0,0,0.0617284,113.33333,0)"
           xlink:href="#ap"
           id="use90" />
      </g>
    </defs>
  </g>
</svg>
