<?xml version="1.0" encoding="UTF-8" standalone="no"?>
<svg
   viewBox="0 0 24 24"
   version="1.1"
   id="svg1"
   sodipodi:docname="lan-connect-hover.svg"
   inkscape:version="1.4.2 (2aeb623e1d, 2025-05-12)"
   xmlns:inkscape="http://www.inkscape.org/namespaces/inkscape"
   xmlns:sodipodi="http://sodipodi.sourceforge.net/DTD/sodipodi-0.dtd"
   xmlns="http://www.w3.org/2000/svg"
   xmlns:svg="http://www.w3.org/2000/svg">
  <defs
     id="defs1" />
  <sodipodi:namedview
     id="namedview1"
     pagecolor="#ffffff"
     bordercolor="#000000"
     borderopacity="0.25"
     inkscape:showpageshadow="2"
     inkscape:pageopacity="0.0"
     inkscape:pagecheckerboard="0"
     inkscape:deskcolor="#d1d1d1"
     inkscape:zoom="16.083565"
     inkscape:cx="9.4506408"
     inkscape:cy="12.466141"
     inkscape:window-width="1920"
     inkscape:window-height="1065"
     inkscape:window-x="0"
     inkscape:window-y="32"
     inkscape:window-maximized="1"
     inkscape:current-layer="svg1" />
  <path
     d="m 14,13 c -1.11,0 -2,0.89 -2,2 v 4 c 0,1.11 0.89,2 2,2 h -3 v 2 h 12 v -2 h -3 c 1.11,0 2,-0.89 2,-2 v -4 c 0,-1.11 -0.89,-2 -2,-2 h -6"
     id="path7"
     style="fill:#00b9e4;fill-opacity:1" />
  <path
     d="m 3,13 v 5 2 h 7 V 18 H 5 V 13 H 3"
     id="path6" />
  <path
     d="M 4,1 C 2.89,1 2,1.89 2,3 V 7 C 2,8.11 2.89,9 4,9 H 1 v 2 H 13 V 9 h -3 c 1.11,0 2,-0.89 2,-2 V 3 C 12,1.89 11.11,1 10,1 H 4"
     id="path1" />
  <path
     d="m 4,3 h 6 V 7 H 4 V 3"
     id="path5"
     style="fill:#ffffff;fill-opacity:1" />
  <path
     d="m 14,15 h 6 v 4 h -6 z"
     id="path8"
     style="fill:#ffffff;fill-opacity:1" />
</svg>
