<?xml version="1.0" encoding="UTF-8" standalone="no"?>
<svg
   viewBox="0 0 24 24"
   version="1.1"
   id="svg1"
   sodipodi:docname="lan-connect.svg"
   inkscape:version="1.4.2 (2aeb623e1d, 2025-05-12)"
   xmlns:inkscape="http://www.inkscape.org/namespaces/inkscape"
   xmlns:sodipodi="http://sodipodi.sourceforge.net/DTD/sodipodi-0.dtd"
   xmlns="http://www.w3.org/2000/svg"
   xmlns:svg="http://www.w3.org/2000/svg">
  <defs
     id="defs1" />
  <sodipodi:namedview
     id="namedview1"
     pagecolor="#ffffff"
     bordercolor="#000000"
     borderopacity="0.25"
     inkscape:showpageshadow="2"
     inkscape:pageopacity="0.0"
     inkscape:pagecheckerboard="0"
     inkscape:deskcolor="#d1d1d1"
     inkscape:zoom="16.083565"
     inkscape:cx="9.4506411"
     inkscape:cy="12.466142"
     inkscape:window-width="1920"
     inkscape:window-height="1163"
     inkscape:window-x="1080"
     inkscape:window-y="0"
     inkscape:window-maximized="1"
     inkscape:current-layer="svg1" />
  <path
     id="path7"
     style="fill:#00b9e4;fill-opacity:1"
     d="M 14 13 C 12.89 13 12 13.89 12 15 L 12 19 C 12 20.11 12.89 21 14 21 L 11 21 L 11 23 L 23 23 L 23 21 L 20 21 C 21.11 21 22 20.11 22 19 L 22 15 C 22 13.89 21.11 13 20 13 L 14 13 z M 14 15 L 20 15 L 20 19 L 14 19 L 14 15 z " />
  <path
     d="m 3,13 v 5 2 h 7 V 18 H 5 V 13 H 3"
     id="path6" />
  <path
     id="path1"
     d="M 4 1 C 2.89 1 2 1.89 2 3 L 2 7 C 2 8.11 2.89 9 4 9 L 1 9 L 1 11 L 13 11 L 13 9 L 10 9 C 11.11 9 12 8.11 12 7 L 12 3 C 12 1.89 11.11 1 10 1 L 4 1 z M 4 3 L 10 3 L 10 7 L 4 7 L 4 3 z " />
</svg>
