<?xml version="1.0" encoding="UTF-8" standalone="no"?>
<svg
   height="24"
   viewBox="0 0 24 24"
   width="24"
   version="1.1"
   id="svg1"
   sodipodi:docname="edit_document.svg"
   inkscape:version="1.3.2 (1:1.3.2+202311252150+091e20ef0f)"
   xmlns:inkscape="http://www.inkscape.org/namespaces/inkscape"
   xmlns:sodipodi="http://sodipodi.sourceforge.net/DTD/sodipodi-0.dtd"
   xmlns="http://www.w3.org/2000/svg"
   xmlns:svg="http://www.w3.org/2000/svg">
  <sodipodi:namedview
     id="namedview1"
     pagecolor="#ffffff"
     bordercolor="#000000"
     borderopacity="0.25"
     inkscape:showpageshadow="2"
     inkscape:pageopacity="0.0"
     inkscape:pagecheckerboard="0"
     inkscape:deskcolor="#d1d1d1"
     showguides="true"
     inkscape:zoom="21.360517"
     inkscape:cx="12.757182"
     inkscape:cy="18.375023"
     inkscape:window-width="1920"
     inkscape:window-height="925"
     inkscape:window-x="0"
     inkscape:window-y="0"
     inkscape:window-maximized="1"
     inkscape:current-layer="g1">
    <sodipodi:guide
       position="-2.2099138,21.03194"
       orientation="0,-1"
       id="guide1"
       inkscape:locked="false" />
    <sodipodi:guide
       position="-5.3601724,2.9476293"
       orientation="0,-1"
       id="guide2"
       inkscape:locked="false" />
  </sodipodi:namedview>
  <defs
     id="defs1" />
  <g
     id="g1"
     transform="matrix(0.81279481,0,0,0.81279481,3.0127865,2.3305159)">
    <path
       id="path7"
       style="display:inline;stroke-width:0"
       d="M 10,20 H 6 V 4 h 7 v 5 h 5 v 3.1 l 2,-2 V 8 L 14,2 H 6 C 4.9,2 4,2.9 4,4 v 16 c 0,1.1 0.9,2 2,2 h 4 v -2 m 10.222432,-7.039251 c -2.605983,0 -4.895564,-0.0272 -7.499106,0.02057 -0.724832,0 -1.095115,0.396504 -1.095115,1.1781 v 8.89973 l 2.01968,-2.019683 c 2.280308,-0.02704 4.565923,0.05635 6.842861,-0.04625 0.571611,-0.220079 0.723857,-0.69686 0.750176,-1.23448 0.02586,-0.528399 -0.06991,-1.11557 -0.0087,-1.575553 -0.01526,-1.485775 0.08515,-2.983104 -0.05354,-4.461736 -0.09091,-0.446811 -0.499821,-0.760703 -0.9562,-0.760703 z m -6.775086,6.93209 -0.03712,-0.842791 v -4.420689 h 6.006441 v 4.853938 l -3.824439,0.0029 -1.616951,0.0014"
       sodipodi:nodetypes="ccccccccccccccccscccccsccssccccccc" />
  </g>
</svg>
