<?xml version="1.0" encoding="UTF-8" standalone="no"?>
<svg
   xmlns:dc="http://purl.org/dc/elements/1.1/"
   xmlns:cc="http://creativecommons.org/ns#"
   xmlns:rdf="http://www.w3.org/1999/02/22-rdf-syntax-ns#"
   xmlns:svg="http://www.w3.org/2000/svg"
   xmlns="http://www.w3.org/2000/svg"
   viewBox="0 0 226.77333 226.77333"
   height="226.77333"
   width="226.77333"
   xml:space="preserve"
   id="svg2"
   version="1.1"><metadata
     id="metadata8"><rdf:RDF><cc:Work
         rdf:about=""><dc:format>image/svg+xml</dc:format><dc:type
           rdf:resource="http://purl.org/dc/dcmitype/StillImage" /></cc:Work></rdf:RDF></metadata><defs
     id="defs6" /><g
     transform="matrix(1.3333333,0,0,-1.3333333,0,226.77333)"
     id="g10"><g
       transform="scale(0.1)"
       id="g12"><path
         id="path14"
         style="fill:#ffffff;fill-opacity:1;fill-rule:nonzero;stroke:none"
         d="m 850.395,297.578 c 305.315,0 552.815,247.5 552.815,552.817 0,305.315 -247.5,552.815 -552.815,552.815 -305.313,0 -552.821,-247.5 -552.821,-552.815 0,-305.317 247.508,-552.817 552.821,-552.817" /><path
         id="path16"
         style="fill:#414f5c;fill-opacity:1;fill-rule:nonzero;stroke:none"
         d="m 1237.26,780.441 h -26.43 c -3.3,17.043 -16.75,30.434 -33.84,33.7 l 0.03,42.914 c 17.08,3.265 30.52,16.668 33.81,33.73 h 26.43 c 4.48,0 8.13,3.625 8.13,8.102 0,4.48 -3.65,8.136 -8.13,8.136 h -26.43 c -3.29,17.043 -16.72,30.418 -33.78,33.7 l 0.03,84.757 c 0,2.14 -0.87,4.23 -2.37,5.73 -1.51,1.53 -3.6,2.4 -5.76,2.4 h -84.78 c -3.27,16.87 -16.46,30.23 -33.3,33.65 v 84.79 c 0,2.14 -0.86,4.24 -2.37,5.75 -1.52,1.52 -3.6,2.39 -5.75,2.39 h -85.234 c -3.301,17 -16.688,30.37 -33.703,33.65 v 25.2 c 0,4.48 -3.657,8.1 -8.133,8.1 -4.492,0 -8.121,-3.62 -8.121,-8.1 v -25.2 c -17.043,-3.28 -30.45,-16.65 -33.731,-33.65 H 848.77 c -4.477,0 -8.137,-3.63 -8.137,-8.14 0,-4.48 3.66,-8.12 8.137,-8.12 h 25.058 c 3.281,-17.03 16.688,-30.41 33.731,-33.72 v -42.91 c -17.043,-3.28 -30.45,-16.67 -33.731,-33.69 h -25.047 c -4.488,0 -8.133,-3.65 -8.133,-8.13 0,-4.49 3.645,-8.13 8.133,-8.13 h 25.047 c 3.281,-17.03 16.688,-30.401 33.731,-33.686 v -42.957 c -17.043,-3.281 -30.45,-16.656 -33.731,-33.684 h -25.031 c -4.504,0 -8.149,-3.656 -8.149,-8.136 0,-4.477 3.645,-8.102 8.149,-8.102 h 25.031 c 3.281,-17.031 16.672,-30.433 33.731,-33.719 v -42.937 c -17.043,-3.285 -30.434,-16.672 -33.731,-33.688 h -25.031 c -4.492,0 -8.149,-3.64 -8.149,-8.132 0,-4.481 3.657,-8.137 8.149,-8.137 h 25.031 c 3.281,-17.016 16.688,-30.402 33.731,-33.688 v -42.925 c -17.043,-3.27 -30.434,-16.637 -33.731,-33.688 h -25.047 c -4.488,0 -8.133,-3.621 -8.133,-8.133 0,-4.457 3.645,-8.129 8.133,-8.129 v 0.032 h 25.047 c 3.281,-17.032 16.672,-30.422 33.731,-33.711 V 560.988 C 890.516,557.699 877.125,544.34 873.828,527.32 l -25.058,-0.011 c -4.508,0 -8.137,-3.661 -8.137,-8.168 0,-4.469 3.66,-8.121 8.164,-8.121 v 0.031 l 25.016,0.019 c 3.285,-17.031 16.687,-30.429 33.746,-33.718 v -21.481 c 0,-4.492 3.629,-8.133 8.121,-8.133 4.476,0 8.133,3.641 8.133,8.133 v 21.5 c 17.058,3.277 30.449,16.699 33.703,33.77 l 85.234,0.058 c 4.5,0 8.12,3.629 8.12,8.121 v 84.66 c 16.85,3.418 30.03,16.758 33.3,33.661 h 84.63 c 2.16,0 4.21,0.828 5.74,2.371 1.54,1.519 2.39,3.566 2.39,5.726 l 0.03,84.735 c 17.11,3.254 30.57,16.64 33.87,33.699 h 26.43 c 4.49,0 8.13,3.656 8.13,8.137 0,4.492 -3.64,8.132 -8.13,8.132 m -110.12,0 h -42.97 c -3.27,16.879 -16.46,30.223 -33.3,33.641 v 43.031 c 16.85,3.418 30.05,16.774 33.3,33.672 h 42.96 c 3.28,-17 16.62,-30.39 33.61,-33.719 l -0.02,-42.953 c -16.95,-3.312 -30.3,-16.687 -33.58,-33.672 M 1000.47,653.871 H 957.5 c -3.285,17.027 -16.672,30.418 -33.687,33.688 v 42.925 c 17.015,3.301 30.402,16.672 33.703,33.688 h 42.954 c 3.31,-17.149 16.91,-30.582 34.15,-33.731 v -42.82 c -17.23,-3.152 -30.82,-16.582 -34.15,-33.75 m -42.954,363.479 h 42.954 c 3.33,-17.16 16.92,-30.58 34.15,-33.733 v -42.863 c -17.23,-3.149 -30.82,-16.566 -34.15,-33.731 h -42.954 c -3.301,17.028 -16.688,30.403 -33.703,33.684 v 42.957 c 17.015,3.285 30.402,16.656 33.703,33.686 m 0,-126.565 h 42.954 c 3.31,-17.164 16.91,-30.613 34.15,-33.762 v -42.851 c -17.23,-3.149 -30.82,-16.582 -34.15,-33.731 H 957.5 c -3.285,17.016 -16.672,30.403 -33.687,33.688 v 42.937 c 17.015,3.286 30.417,16.688 33.703,33.719 m 203.264,49.922 c -17,-3.312 -30.36,-16.684 -33.65,-33.684 h -42.96 c -3.27,16.895 -16.46,30.223 -33.3,33.641 v 43.043 c 16.84,3.418 30.03,16.763 33.3,33.643 h 76.64 z m -126.16,126.643 c -17.23,-3.15 -30.82,-16.58 -34.15,-33.74 h -42.954 c -3.301,17.01 -16.688,30.41 -33.703,33.69 v 42.91 c 17.015,3.31 30.402,16.69 33.703,33.72 h 77.104 z M 957.5,527.371 c -3.301,17 -16.687,30.328 -33.687,33.609 v 42.95 c 17.031,3.289 30.417,16.691 33.703,33.711 h 42.954 c 3.31,-17.172 16.91,-30.602 34.15,-33.75 v -76.52 z m 126.67,126.5 c -3.27,16.899 -16.46,30.238 -33.3,33.66 v 42.985 c 16.84,3.433 30.03,16.777 33.3,33.656 h 42.96 c 3.28,-16.969 16.61,-30.344 33.56,-33.672 l -0.03,-76.629 h -76.49" /><path
         id="path18"
         style="fill:#94a5ad;fill-opacity:1;fill-rule:nonzero;stroke:none"
         d="m 474.465,777.223 c 10.519,0 19.09,-8.524 19.09,-19.047 0,-10.535 -8.571,-19.043 -19.09,-19.043 -10.539,0 -19.063,8.508 -19.063,19.043 0,10.523 8.524,19.047 19.063,19.047" /><path
         id="path20"
         style="fill:#94a5ad;fill-opacity:1;fill-rule:nonzero;stroke:none"
         d="m 474.465,830.098 c 10.519,0 19.09,-8.571 19.09,-19.09 0,-10.508 -8.571,-19.063 -19.09,-19.063 -10.539,0 -19.063,8.555 -19.063,19.063 0,10.519 8.524,19.09 19.063,19.09" /><path
         id="path22"
         style="fill:#94a5ad;fill-opacity:1;fill-rule:nonzero;stroke:none"
         d="m 527.348,671.551 c 10.535,0 19.058,-8.531 19.058,-19.063 0,-10.527 -8.523,-19.058 -19.058,-19.058 -10.524,0 -19.075,8.531 -19.075,19.058 0,10.532 8.551,19.063 19.075,19.063" /><path
         id="path24"
         style="fill:#94a5ad;fill-opacity:1;fill-rule:nonzero;stroke:none"
         d="m 527.348,724.395 c 10.535,0 19.058,-8.524 19.058,-19.075 0,-10.519 -8.523,-19.058 -19.058,-19.058 -10.524,0 -19.075,8.539 -19.075,19.058 0,10.551 8.551,19.075 19.075,19.075" /><path
         id="path26"
         style="fill:#94a5ad;fill-opacity:1;fill-rule:nonzero;stroke:none"
         d="m 527.348,777.223 c 10.535,0 19.058,-8.524 19.058,-19.047 0,-10.535 -8.523,-19.043 -19.058,-19.043 -10.524,0 -19.075,8.508 -19.075,19.043 0,10.523 8.551,19.047 19.075,19.047" /><path
         id="path28"
         style="fill:#94a5ad;fill-opacity:1;fill-rule:nonzero;stroke:none"
         d="m 527.348,830.098 c 10.535,0 19.058,-8.571 19.058,-19.09 0,-10.508 -8.523,-19.063 -19.058,-19.063 -10.524,0 -19.075,8.555 -19.075,19.063 0,10.519 8.551,19.09 19.075,19.09" /><path
         id="path30"
         style="fill:#94a5ad;fill-opacity:1;fill-rule:nonzero;stroke:none"
         d="m 580.234,618.711 c 10.536,0 19.059,-8.531 19.059,-19.082 0,-10.52 -8.523,-19.027 -19.059,-19.027 -10.539,0 -19.074,8.507 -19.074,19.027 0,10.551 8.535,19.082 19.074,19.082" /><path
         id="path32"
         style="fill:#94a5ad;fill-opacity:1;fill-rule:nonzero;stroke:none"
         d="m 580.234,671.551 c 10.536,0 19.059,-8.531 19.059,-19.063 0,-10.527 -8.523,-19.058 -19.059,-19.058 -10.539,0 -19.074,8.531 -19.074,19.058 0,10.532 8.535,19.063 19.074,19.063" /><path
         id="path34"
         style="fill:#94a5ad;fill-opacity:1;fill-rule:nonzero;stroke:none"
         d="m 580.234,724.395 c 10.536,0 19.059,-8.524 19.059,-19.075 0,-10.519 -8.523,-19.058 -19.059,-19.058 -10.539,0 -19.074,8.539 -19.074,19.058 0,10.551 8.535,19.075 19.074,19.075" /><path
         id="path36"
         style="fill:#94a5ad;fill-opacity:1;fill-rule:nonzero;stroke:none"
         d="m 580.234,777.223 c 10.536,0 19.059,-8.524 19.059,-19.047 0,-10.535 -8.523,-19.043 -19.059,-19.043 -10.539,0 -19.074,8.508 -19.074,19.043 0,10.523 8.535,19.047 19.074,19.047" /><path
         id="path38"
         style="fill:#94a5ad;fill-opacity:1;fill-rule:nonzero;stroke:none"
         d="m 580.234,830.098 c 10.536,0 19.059,-8.571 19.059,-19.09 0,-10.508 -8.523,-19.063 -19.059,-19.063 -10.539,0 -19.074,8.555 -19.074,19.063 0,10.519 8.535,19.09 19.074,19.09" /><path
         id="path40"
         style="fill:#94a5ad;fill-opacity:1;fill-rule:nonzero;stroke:none"
         d="m 633.109,565.859 c 10.539,0 19.075,-8.531 19.075,-19.058 0,-10.52 -8.536,-19.039 -19.075,-19.039 -10.519,0 -19.058,8.519 -19.058,19.039 0,10.527 8.539,19.058 19.058,19.058" /><path
         id="path42"
         style="fill:#94a5ad;fill-opacity:1;fill-rule:nonzero;stroke:none"
         d="m 633.109,618.711 c 10.539,0 19.075,-8.531 19.075,-19.082 0,-10.52 -8.536,-19.027 -19.075,-19.027 -10.519,0 -19.058,8.507 -19.058,19.027 0,10.551 8.539,19.082 19.058,19.082" /><path
         id="path44"
         style="fill:#94a5ad;fill-opacity:1;fill-rule:nonzero;stroke:none"
         d="m 633.109,671.551 c 10.539,0 19.075,-8.531 19.075,-19.063 0,-10.527 -8.536,-19.058 -19.075,-19.058 -10.519,0 -19.058,8.531 -19.058,19.058 0,10.532 8.539,19.063 19.058,19.063" /><path
         id="path46"
         style="fill:#94a5ad;fill-opacity:1;fill-rule:nonzero;stroke:none"
         d="m 633.109,724.395 c 10.539,0 19.075,-8.524 19.075,-19.075 0,-10.519 -8.536,-19.058 -19.075,-19.058 -10.519,0 -19.058,8.539 -19.058,19.058 0,10.551 8.539,19.075 19.058,19.075" /><path
         id="path48"
         style="fill:#94a5ad;fill-opacity:1;fill-rule:nonzero;stroke:none"
         d="m 633.109,777.223 c 10.539,0 19.075,-8.524 19.075,-19.047 0,-10.535 -8.536,-19.043 -19.075,-19.043 -10.519,0 -19.058,8.508 -19.058,19.043 0,10.523 8.539,19.047 19.058,19.047" /><path
         id="path50"
         style="fill:#94a5ad;fill-opacity:1;fill-rule:nonzero;stroke:none"
         d="m 633.109,830.098 c 10.539,0 19.075,-8.571 19.075,-19.09 0,-10.508 -8.536,-19.063 -19.075,-19.063 -10.519,0 -19.058,8.555 -19.058,19.063 0,10.519 8.539,19.09 19.058,19.09" /><path
         id="path52"
         style="fill:#94a5ad;fill-opacity:1;fill-rule:nonzero;stroke:none"
         d="m 685.988,565.859 c 10.551,0 19.075,-8.531 19.075,-19.058 0,-10.52 -8.524,-19.039 -19.075,-19.039 -10.539,0 -19.062,8.519 -19.062,19.039 0,10.527 8.523,19.058 19.062,19.058" /><path
         id="path54"
         style="fill:#94a5ad;fill-opacity:1;fill-rule:nonzero;stroke:none"
         d="m 685.988,618.711 c 10.551,0 19.075,-8.531 19.075,-19.082 0,-10.52 -8.524,-19.027 -19.075,-19.027 -10.539,0 -19.062,8.507 -19.062,19.027 0,10.551 8.523,19.082 19.062,19.082" /><path
         id="path56"
         style="fill:#94a5ad;fill-opacity:1;fill-rule:nonzero;stroke:none"
         d="m 685.988,671.551 c 10.551,0 19.075,-8.531 19.075,-19.063 0,-10.527 -8.524,-19.058 -19.075,-19.058 -10.539,0 -19.062,8.531 -19.062,19.058 0,10.532 8.523,19.063 19.062,19.063" /><path
         id="path58"
         style="fill:#94a5ad;fill-opacity:1;fill-rule:nonzero;stroke:none"
         d="m 685.988,724.395 c 10.551,0 19.075,-8.524 19.075,-19.075 0,-10.519 -8.524,-19.058 -19.075,-19.058 -10.539,0 -19.062,8.539 -19.062,19.058 0,10.551 8.523,19.075 19.062,19.075" /><path
         id="path60"
         style="fill:#94a5ad;fill-opacity:1;fill-rule:nonzero;stroke:none"
         d="m 685.988,777.223 c 10.551,0 19.075,-8.524 19.075,-19.047 0,-10.535 -8.524,-19.043 -19.075,-19.043 -10.539,0 -19.062,8.508 -19.062,19.043 0,10.523 8.523,19.047 19.062,19.047" /><path
         id="path62"
         style="fill:#94a5ad;fill-opacity:1;fill-rule:nonzero;stroke:none"
         d="m 685.988,830.098 c 10.551,0 19.075,-8.571 19.075,-19.09 0,-10.508 -8.524,-19.063 -19.075,-19.063 -10.539,0 -19.062,8.555 -19.062,19.063 0,10.519 8.523,19.09 19.062,19.09" /><path
         id="path64"
         style="fill:#94a5ad;fill-opacity:1;fill-rule:nonzero;stroke:none"
         d="m 738.863,513.02 c 10.524,0 19.075,-8.54 19.075,-19.059 0,-10.5 -8.551,-19.051 -19.075,-19.051 -10.508,0 -19.09,8.551 -19.09,19.051 0,10.519 8.582,19.059 19.09,19.059" /><path
         id="path66"
         style="fill:#94a5ad;fill-opacity:1;fill-rule:nonzero;stroke:none"
         d="m 738.863,565.859 c 10.524,0 19.075,-8.531 19.075,-19.058 0,-10.52 -8.551,-19.039 -19.075,-19.039 -10.508,0 -19.09,8.519 -19.09,19.039 0,10.527 8.582,19.058 19.09,19.058" /><path
         id="path68"
         style="fill:#94a5ad;fill-opacity:1;fill-rule:nonzero;stroke:none"
         d="m 738.863,618.711 c 10.524,0 19.075,-8.531 19.075,-19.082 0,-10.52 -8.551,-19.027 -19.075,-19.027 -10.508,0 -19.09,8.507 -19.09,19.027 0,10.551 8.582,19.082 19.09,19.082" /><path
         id="path70"
         style="fill:#94a5ad;fill-opacity:1;fill-rule:nonzero;stroke:none"
         d="m 738.863,671.551 c 10.524,0 19.075,-8.531 19.075,-19.063 0,-10.527 -8.551,-19.058 -19.075,-19.058 -10.508,0 -19.09,8.531 -19.09,19.058 0,10.532 8.582,19.063 19.09,19.063" /><path
         id="path72"
         style="fill:#94a5ad;fill-opacity:1;fill-rule:nonzero;stroke:none"
         d="m 738.863,724.395 c 10.524,0 19.075,-8.524 19.075,-19.075 0,-10.519 -8.551,-19.058 -19.075,-19.058 -10.508,0 -19.09,8.539 -19.09,19.058 0,10.551 8.582,19.075 19.09,19.075" /><path
         id="path74"
         style="fill:#94a5ad;fill-opacity:1;fill-rule:nonzero;stroke:none"
         d="m 738.863,777.223 c 10.524,0 19.075,-8.524 19.075,-19.047 0,-10.535 -8.551,-19.043 -19.075,-19.043 -10.508,0 -19.09,8.508 -19.09,19.043 0,10.523 8.582,19.047 19.09,19.047" /><path
         id="path76"
         style="fill:#94a5ad;fill-opacity:1;fill-rule:nonzero;stroke:none"
         d="m 738.863,830.098 c 10.524,0 19.075,-8.571 19.075,-19.09 0,-10.508 -8.551,-19.063 -19.075,-19.063 -10.508,0 -19.09,8.555 -19.09,19.063 0,10.519 8.582,19.09 19.09,19.09" /><path
         id="path78"
         style="fill:#94a5ad;fill-opacity:1;fill-rule:nonzero;stroke:none"
         d="m 791.73,513.02 c 10.54,0 19.09,-8.54 19.09,-19.059 0,-10.5 -8.55,-19.051 -19.09,-19.051 -10.519,0 -19.058,8.551 -19.058,19.051 0,10.519 8.539,19.059 19.058,19.059" /><path
         id="path80"
         style="fill:#94a5ad;fill-opacity:1;fill-rule:nonzero;stroke:none"
         d="m 791.73,565.859 c 10.54,0 19.09,-8.531 19.09,-19.058 0,-10.52 -8.55,-19.039 -19.09,-19.039 -10.519,0 -19.058,8.519 -19.058,19.039 0,10.527 8.539,19.058 19.058,19.058" /><path
         id="path82"
         style="fill:#94a5ad;fill-opacity:1;fill-rule:nonzero;stroke:none"
         d="m 791.73,618.711 c 10.54,0 19.09,-8.531 19.09,-19.082 0,-10.52 -8.55,-19.027 -19.09,-19.027 -10.519,0 -19.058,8.507 -19.058,19.027 0,10.551 8.539,19.082 19.058,19.082" /><path
         id="path84"
         style="fill:#94a5ad;fill-opacity:1;fill-rule:nonzero;stroke:none"
         d="m 791.73,671.551 c 10.54,0 19.09,-8.531 19.09,-19.063 0,-10.527 -8.55,-19.058 -19.09,-19.058 -10.519,0 -19.058,8.531 -19.058,19.058 0,10.532 8.539,19.063 19.058,19.063" /><path
         id="path86"
         style="fill:#94a5ad;fill-opacity:1;fill-rule:nonzero;stroke:none"
         d="m 791.73,724.395 c 10.54,0 19.09,-8.524 19.09,-19.075 0,-10.519 -8.55,-19.058 -19.09,-19.058 -10.519,0 -19.058,8.539 -19.058,19.058 0,10.551 8.539,19.075 19.058,19.075" /><path
         id="path88"
         style="fill:#94a5ad;fill-opacity:1;fill-rule:nonzero;stroke:none"
         d="m 791.73,777.223 c 10.54,0 19.09,-8.524 19.09,-19.047 0,-10.535 -8.55,-19.043 -19.09,-19.043 -10.519,0 -19.058,8.508 -19.058,19.043 0,10.523 8.539,19.047 19.058,19.047" /><path
         id="path90"
         style="fill:#94a5ad;fill-opacity:1;fill-rule:nonzero;stroke:none"
         d="m 791.73,830.098 c 10.54,0 19.09,-8.571 19.09,-19.09 0,-10.508 -8.55,-19.063 -19.09,-19.063 -10.519,0 -19.058,8.555 -19.058,19.063 0,10.519 8.539,19.09 19.058,19.09" /><path
         id="path92"
         style="fill:#94a5ad;fill-opacity:1;fill-rule:nonzero;stroke:none"
         d="m 474.465,882.934 c 10.519,0 19.09,-8.524 19.09,-19.063 0,-10.519 -8.571,-19.09 -19.09,-19.09 -10.539,0 -19.063,8.571 -19.063,19.09 0,10.539 8.524,19.063 19.063,19.063" /><path
         id="path94"
         style="fill:#94a5ad;fill-opacity:1;fill-rule:nonzero;stroke:none"
         d="m 474.465,935.777 c 10.519,0 19.09,-8.523 19.09,-19.074 0,-10.508 -8.571,-19.043 -19.09,-19.043 -10.539,0 -19.063,8.535 -19.063,19.043 0,10.551 8.524,19.074 19.063,19.074" /><path
         id="path96"
         style="fill:#94a5ad;fill-opacity:1;fill-rule:nonzero;stroke:none"
         d="m 527.348,882.934 c 10.535,0 19.058,-8.524 19.058,-19.063 0,-10.519 -8.523,-19.09 -19.058,-19.09 -10.524,0 -19.075,8.571 -19.075,19.09 0,10.539 8.551,19.063 19.075,19.063" /><path
         id="path98"
         style="fill:#94a5ad;fill-opacity:1;fill-rule:nonzero;stroke:none"
         d="m 527.348,935.777 c 10.535,0 19.058,-8.523 19.058,-19.074 0,-10.508 -8.523,-19.043 -19.058,-19.043 -10.524,0 -19.075,8.535 -19.075,19.043 0,10.551 8.551,19.074 19.075,19.074" /><path
         id="path100"
         style="fill:#94a5ad;fill-opacity:1;fill-rule:nonzero;stroke:none"
         d="m 527.348,988.605 c 10.535,0 19.058,-8.55 19.058,-19.042 0,-10.555 -8.523,-19.063 -19.058,-19.063 -10.524,0 -19.075,8.508 -19.075,19.063 0,10.492 8.551,19.042 19.075,19.042" /><path
         id="path102"
         style="fill:#94a5ad;fill-opacity:1;fill-rule:nonzero;stroke:none"
         d="m 527.348,1041.46 c 10.535,0 19.058,-8.52 19.058,-19.04 0,-10.53 -8.523,-19.09 -19.058,-19.09 -10.524,0 -19.075,8.56 -19.075,19.09 0,10.52 8.551,19.04 19.075,19.04" /><path
         id="path104"
         style="fill:#94a5ad;fill-opacity:1;fill-rule:nonzero;stroke:none"
         d="m 580.234,882.934 c 10.536,0 19.059,-8.524 19.059,-19.063 0,-10.519 -8.523,-19.09 -19.059,-19.09 -10.539,0 -19.074,8.571 -19.074,19.09 0,10.539 8.535,19.063 19.074,19.063" /><path
         id="path106"
         style="fill:#94a5ad;fill-opacity:1;fill-rule:nonzero;stroke:none"
         d="m 580.234,935.777 c 10.536,0 19.059,-8.523 19.059,-19.074 0,-10.508 -8.523,-19.043 -19.059,-19.043 -10.539,0 -19.074,8.535 -19.074,19.043 0,10.551 8.535,19.074 19.074,19.074" /><path
         id="path108"
         style="fill:#94a5ad;fill-opacity:1;fill-rule:nonzero;stroke:none"
         d="m 580.234,988.605 c 10.536,0 19.059,-8.55 19.059,-19.042 0,-10.555 -8.523,-19.063 -19.059,-19.063 -10.539,0 -19.074,8.508 -19.074,19.063 0,10.492 8.535,19.042 19.074,19.042" /><path
         id="path110"
         style="fill:#94a5ad;fill-opacity:1;fill-rule:nonzero;stroke:none"
         d="m 580.234,1041.46 c 10.536,0 19.059,-8.52 19.059,-19.04 0,-10.53 -8.523,-19.09 -19.059,-19.09 -10.539,0 -19.074,8.56 -19.074,19.09 0,10.52 8.535,19.04 19.074,19.04" /><path
         id="path112"
         style="fill:#94a5ad;fill-opacity:1;fill-rule:nonzero;stroke:none"
         d="m 580.234,1094.28 c 10.536,0 19.059,-8.54 19.059,-19.05 0,-10.53 -8.523,-19.06 -19.059,-19.06 -10.539,0 -19.074,8.53 -19.074,19.06 0,10.51 8.535,19.05 19.074,19.05" /><path
         id="path114"
         style="fill:#94a5ad;fill-opacity:1;fill-rule:nonzero;stroke:none"
         d="m 633.109,882.934 c 10.539,0 19.075,-8.524 19.075,-19.063 0,-10.519 -8.536,-19.09 -19.075,-19.09 -10.519,0 -19.058,8.571 -19.058,19.09 0,10.539 8.539,19.063 19.058,19.063" /><path
         id="path116"
         style="fill:#94a5ad;fill-opacity:1;fill-rule:nonzero;stroke:none"
         d="m 633.109,935.777 c 10.539,0 19.075,-8.523 19.075,-19.074 0,-10.508 -8.536,-19.043 -19.075,-19.043 -10.519,0 -19.058,8.535 -19.058,19.043 0,10.551 8.539,19.074 19.058,19.074" /><path
         id="path118"
         style="fill:#94a5ad;fill-opacity:1;fill-rule:nonzero;stroke:none"
         d="m 633.109,988.605 c 10.539,0 19.075,-8.55 19.075,-19.042 0,-10.555 -8.536,-19.063 -19.075,-19.063 -10.519,0 -19.058,8.508 -19.058,19.063 0,10.492 8.539,19.042 19.058,19.042" /><path
         id="path120"
         style="fill:#94a5ad;fill-opacity:1;fill-rule:nonzero;stroke:none"
         d="m 633.109,1041.46 c 10.539,0 19.075,-8.52 19.075,-19.04 0,-10.53 -8.536,-19.09 -19.075,-19.09 -10.519,0 -19.058,8.56 -19.058,19.09 0,10.52 8.539,19.04 19.058,19.04" /><path
         id="path122"
         style="fill:#94a5ad;fill-opacity:1;fill-rule:nonzero;stroke:none"
         d="m 633.109,1094.28 c 10.539,0 19.075,-8.54 19.075,-19.05 0,-10.53 -8.536,-19.06 -19.075,-19.06 -10.519,0 -19.058,8.53 -19.058,19.06 0,10.51 8.539,19.05 19.058,19.05" /><path
         id="path124"
         style="fill:#94a5ad;fill-opacity:1;fill-rule:nonzero;stroke:none"
         d="m 633.109,1147.14 c 10.539,0 19.075,-8.54 19.075,-19.05 0,-10.52 -8.536,-19.07 -19.075,-19.07 -10.519,0 -19.058,8.55 -19.058,19.07 0,10.51 8.539,19.05 19.058,19.05" /><path
         id="path126"
         style="fill:#94a5ad;fill-opacity:1;fill-rule:nonzero;stroke:none"
         d="m 685.988,882.934 c 10.551,0 19.075,-8.524 19.075,-19.063 0,-10.519 -8.524,-19.09 -19.075,-19.09 -10.539,0 -19.062,8.571 -19.062,19.09 0,10.539 8.523,19.063 19.062,19.063" /><path
         id="path128"
         style="fill:#94a5ad;fill-opacity:1;fill-rule:nonzero;stroke:none"
         d="m 685.988,935.777 c 10.551,0 19.075,-8.523 19.075,-19.074 0,-10.508 -8.524,-19.043 -19.075,-19.043 -10.539,0 -19.062,8.535 -19.062,19.043 0,10.551 8.523,19.074 19.062,19.074" /><path
         id="path130"
         style="fill:#94a5ad;fill-opacity:1;fill-rule:nonzero;stroke:none"
         d="m 685.988,988.605 c 10.551,0 19.075,-8.55 19.075,-19.042 0,-10.555 -8.524,-19.063 -19.075,-19.063 -10.539,0 -19.062,8.508 -19.062,19.063 0,10.492 8.523,19.042 19.062,19.042" /><path
         id="path132"
         style="fill:#94a5ad;fill-opacity:1;fill-rule:nonzero;stroke:none"
         d="m 685.988,1041.46 c 10.551,0 19.075,-8.52 19.075,-19.04 0,-10.53 -8.524,-19.09 -19.075,-19.09 -10.539,0 -19.062,8.56 -19.062,19.09 0,10.52 8.523,19.04 19.062,19.04" /><path
         id="path134"
         style="fill:#94a5ad;fill-opacity:1;fill-rule:nonzero;stroke:none"
         d="m 685.988,1094.28 c 10.551,0 19.075,-8.54 19.075,-19.05 0,-10.53 -8.524,-19.06 -19.075,-19.06 -10.539,0 -19.062,8.53 -19.062,19.06 0,10.51 8.523,19.05 19.062,19.05" /><path
         id="path136"
         style="fill:#94a5ad;fill-opacity:1;fill-rule:nonzero;stroke:none"
         d="m 685.988,1147.14 c 10.551,0 19.075,-8.54 19.075,-19.05 0,-10.52 -8.524,-19.07 -19.075,-19.07 -10.539,0 -19.062,8.55 -19.062,19.07 0,10.51 8.523,19.05 19.062,19.05" /><path
         id="path138"
         style="fill:#94a5ad;fill-opacity:1;fill-rule:nonzero;stroke:none"
         d="m 738.863,882.934 c 10.524,0 19.075,-8.524 19.075,-19.063 0,-10.519 -8.551,-19.09 -19.075,-19.09 -10.508,0 -19.09,8.571 -19.09,19.09 0,10.539 8.582,19.063 19.09,19.063" /><path
         id="path140"
         style="fill:#94a5ad;fill-opacity:1;fill-rule:nonzero;stroke:none"
         d="m 738.863,935.777 c 10.524,0 19.075,-8.523 19.075,-19.074 0,-10.508 -8.551,-19.043 -19.075,-19.043 -10.508,0 -19.09,8.535 -19.09,19.043 0,10.551 8.582,19.074 19.09,19.074" /><path
         id="path142"
         style="fill:#94a5ad;fill-opacity:1;fill-rule:nonzero;stroke:none"
         d="m 738.863,988.605 c 10.524,0 19.075,-8.55 19.075,-19.042 0,-10.555 -8.551,-19.063 -19.075,-19.063 -10.508,0 -19.09,8.508 -19.09,19.063 0,10.492 8.582,19.042 19.09,19.042" /><path
         id="path144"
         style="fill:#94a5ad;fill-opacity:1;fill-rule:nonzero;stroke:none"
         d="m 738.863,1041.46 c 10.524,0 19.075,-8.52 19.075,-19.04 0,-10.53 -8.551,-19.09 -19.075,-19.09 -10.508,0 -19.09,8.56 -19.09,19.09 0,10.52 8.582,19.04 19.09,19.04" /><path
         id="path146"
         style="fill:#94a5ad;fill-opacity:1;fill-rule:nonzero;stroke:none"
         d="m 738.863,1094.28 c 10.524,0 19.075,-8.54 19.075,-19.05 0,-10.53 -8.551,-19.06 -19.075,-19.06 -10.508,0 -19.09,8.53 -19.09,19.06 0,10.51 8.582,19.05 19.09,19.05" /><path
         id="path148"
         style="fill:#94a5ad;fill-opacity:1;fill-rule:nonzero;stroke:none"
         d="m 738.863,1147.14 c 10.524,0 19.075,-8.54 19.075,-19.05 0,-10.52 -8.551,-19.07 -19.075,-19.07 -10.508,0 -19.09,8.55 -19.09,19.07 0,10.51 8.582,19.05 19.09,19.05" /><path
         id="path150"
         style="fill:#94a5ad;fill-opacity:1;fill-rule:nonzero;stroke:none"
         d="m 738.863,1199.97 c 10.524,0 19.075,-8.51 19.075,-19.06 0,-10.49 -8.551,-19.04 -19.075,-19.04 -10.508,0 -19.09,8.55 -19.09,19.04 0,10.55 8.582,19.06 19.09,19.06" /><path
         id="path152"
         style="fill:#94a5ad;fill-opacity:1;fill-rule:nonzero;stroke:none"
         d="m 791.73,882.934 c 10.54,0 19.09,-8.524 19.09,-19.063 0,-10.519 -8.55,-19.09 -19.09,-19.09 -10.519,0 -19.058,8.571 -19.058,19.09 0,10.539 8.539,19.063 19.058,19.063" /><path
         id="path154"
         style="fill:#94a5ad;fill-opacity:1;fill-rule:nonzero;stroke:none"
         d="m 791.73,935.777 c 10.54,0 19.09,-8.523 19.09,-19.074 0,-10.508 -8.55,-19.043 -19.09,-19.043 -10.519,0 -19.058,8.535 -19.058,19.043 0,10.551 8.539,19.074 19.058,19.074" /><path
         id="path156"
         style="fill:#94a5ad;fill-opacity:1;fill-rule:nonzero;stroke:none"
         d="m 791.73,988.605 c 10.54,0 19.09,-8.55 19.09,-19.042 0,-10.555 -8.55,-19.063 -19.09,-19.063 -10.519,0 -19.058,8.508 -19.058,19.063 0,10.492 8.539,19.042 19.058,19.042" /><path
         id="path158"
         style="fill:#94a5ad;fill-opacity:1;fill-rule:nonzero;stroke:none"
         d="m 791.73,1041.46 c 10.54,0 19.09,-8.52 19.09,-19.04 0,-10.53 -8.55,-19.09 -19.09,-19.09 -10.519,0 -19.058,8.56 -19.058,19.09 0,10.52 8.539,19.04 19.058,19.04" /><path
         id="path160"
         style="fill:#94a5ad;fill-opacity:1;fill-rule:nonzero;stroke:none"
         d="m 791.73,1094.28 c 10.54,0 19.09,-8.54 19.09,-19.05 0,-10.53 -8.55,-19.06 -19.09,-19.06 -10.519,0 -19.058,8.53 -19.058,19.06 0,10.51 8.539,19.05 19.058,19.05" /><path
         id="path162"
         style="fill:#94a5ad;fill-opacity:1;fill-rule:nonzero;stroke:none"
         d="m 791.73,1147.14 c 10.54,0 19.09,-8.54 19.09,-19.05 0,-10.52 -8.55,-19.07 -19.09,-19.07 -10.519,0 -19.058,8.55 -19.058,19.07 0,10.51 8.539,19.05 19.058,19.05" /><path
         id="path164"
         style="fill:#94a5ad;fill-opacity:1;fill-rule:nonzero;stroke:none"
         d="m 791.73,1199.97 c 10.54,0 19.09,-8.51 19.09,-19.06 0,-10.49 -8.55,-19.04 -19.09,-19.04 -10.519,0 -19.058,8.55 -19.058,19.04 0,10.55 8.539,19.06 19.058,19.06" /><path
         id="path166"
         style="fill:#fcce06;fill-opacity:1;fill-rule:nonzero;stroke:none"
         d="m 1042.32,674.691 c -15.97,0 -28.95,-13 -28.95,-28.953 0,-15.937 12.98,-28.929 28.95,-28.929 15.97,0 28.96,12.992 28.96,28.929 0,15.953 -12.99,28.953 -28.96,28.953" /><path
         id="path168"
         style="fill:#ffffff;fill-opacity:1;fill-rule:nonzero;stroke:none"
         d="m 1168.96,801.25 c -15.95,0 -28.94,-12.984 -28.94,-28.941 0,-15.969 12.99,-28.938 28.94,-28.938 15.97,0 28.97,12.969 28.97,28.938 0,15.957 -13,28.941 -28.97,28.941" /><path
         id="path170"
         style="fill:#ffffff;fill-opacity:1;fill-rule:nonzero;stroke:none"
         d="m 1042.32,801.25 c -15.97,0 -28.95,-12.984 -28.95,-28.941 0,-15.969 12.98,-28.938 28.95,-28.938 15.97,0 28.96,12.969 28.96,28.938 0,15.957 -12.99,28.941 -28.96,28.941" /><path
         id="path172"
         style="fill:#ffffff;fill-opacity:1;fill-rule:nonzero;stroke:none"
         d="m 915.676,801.25 c -15.969,0 -28.953,-12.984 -28.953,-28.941 0,-15.969 12.984,-28.938 28.953,-28.938 15.957,0 28.941,12.969 28.941,28.938 0,15.957 -12.984,28.941 -28.941,28.941" /><path
         id="path174"
         style="fill:#ca9fd5;fill-opacity:1;fill-rule:nonzero;stroke:none"
         d="m 1168.96,927.828 c -15.95,0 -28.94,-12.984 -28.94,-28.941 0,-15.953 12.99,-28.942 28.94,-28.942 15.97,0 28.97,12.989 28.97,28.942 0,15.957 -13,28.941 -28.97,28.941" /><path
         id="path176"
         style="fill:#f47925;fill-opacity:1;fill-rule:nonzero;stroke:none"
         d="m 1042.32,927.828 c -15.97,0 -28.95,-12.984 -28.95,-28.941 0,-15.953 12.98,-28.942 28.95,-28.942 15.97,0 28.96,12.989 28.96,28.942 0,15.957 -12.99,28.941 -28.96,28.941" /><path
         id="path178"
         style="fill:#ffffff;fill-opacity:1;fill-rule:nonzero;stroke:none"
         d="m 1042.32,1054.42 c -15.97,0 -28.95,-12.98 -28.95,-28.94 0,-15.95 12.98,-28.937 28.95,-28.937 15.97,0 28.96,12.987 28.96,28.937 0,15.96 -12.99,28.94 -28.96,28.94" /><path
         id="path180"
         style="fill:#4fbaed;fill-opacity:1;fill-rule:nonzero;stroke:none"
         d="m 915.676,927.828 c -15.969,0 -28.953,-12.984 -28.953,-28.941 0,-15.953 12.984,-28.942 28.953,-28.942 15.957,0 28.941,12.989 28.941,28.942 0,15.957 -12.984,28.941 -28.941,28.941" /><path
         id="path182"
         style="fill:#ffffff;fill-opacity:1;fill-rule:nonzero;stroke:none"
         d="m 915.676,1054.42 c -15.969,0 -28.953,-12.98 -28.953,-28.94 0,-15.95 12.984,-28.937 28.953,-28.937 15.957,0 28.941,12.987 28.941,28.937 0,15.96 -12.984,28.94 -28.941,28.94" /><path
         id="path184"
         style="fill:#ef315e;fill-opacity:1;fill-rule:nonzero;stroke:none"
         d="m 915.676,1180.96 c -15.969,0 -28.953,-12.97 -28.953,-28.91 0,-15.97 12.984,-28.94 28.953,-28.94 15.957,0 28.941,12.97 28.941,28.94 0,15.94 -12.984,28.91 -28.941,28.91" /><path
         id="path186"
         style="fill:#ffffff;fill-opacity:1;fill-rule:nonzero;stroke:none"
         d="m 915.676,548.109 c -15.969,0 -28.953,-12.988 -28.953,-28.961 0,-15.937 12.984,-28.91 28.953,-28.91 15.957,0 28.941,12.973 28.941,28.91 0,15.973 -12.984,28.961 -28.941,28.961" /><path
         id="path188"
         style="fill:#cce310;fill-opacity:1;fill-rule:nonzero;stroke:none"
         d="m 915.676,674.691 c -15.969,0 -28.953,-13 -28.953,-28.972 0,-15.938 12.984,-28.91 28.953,-28.91 15.957,0 28.941,12.972 28.941,28.91 0,15.972 -12.984,28.972 -28.941,28.972" /></g></g></svg>