<?xml version="1.0" encoding="UTF-8"?>
<svg width="150px" height="25px" viewBox="0 0 150 25" version="1.1" xmlns="http://www.w3.org/2000/svg" xmlns:xlink="http://www.w3.org/1999/xlink">
    <g id="logo-white" stroke="none" stroke-width="1" fill="none" fill-rule="evenodd">
        <g id="download" fill-rule="nonzero">
            <path d="M76.2428571,1.05857143 C76.4481412,0.667521171 76.8570139,0.426291785 77.2985714,0.435714286 C77.7047643,0.447613667 78.077338,0.664276283 78.2885714,1.01142857 L87.3685714,20.2628571 L87.4085714,20.3442857 L87.4471429,20.2628571 L96.5471429,1.02 C96.6971429,0.671428571 97.1114286,0.428571429 97.5528571,0.428571429 C97.6957143,0.428571429 97.8342857,0.454285714 97.9614286,0.505714286 C98.4769949,0.712924295 98.7298692,1.29638245 98.5285714,1.81428571 L88.4228571,23.1885714 C88.2276613,23.5612422 87.839217,23.7922091 87.4185714,23.7857143 C86.92,23.7857143 86.5357143,23.4771429 86.41,23.1714286 L77.3242857,3.95714286 L77.2857143,3.87428571 L77.2471429,3.95714286 L68.0385714,23.5028571 L65.6171429,23.5028571 L76.2428571,1.06 L76.2428571,1.05857143 Z M36.8628571,23.5142857 L36.8628571,21.5857143 L24.7857143,21.5857143 L24.7857143,12.9857143 L34.93,12.9857143 C35.4871429,12.9857143 35.95,12.5714286 35.95,12.0371429 C35.95,11.5042857 35.4857143,11.0585714 34.93,11.0585714 L24.7857143,11.0585714 L24.7857143,2.48714286 L36.8642857,2.48714286 L36.8642857,0.558571429 L23.7971429,0.558571429 C23.24,0.558571429 22.7771429,1.00428571 22.7771429,1.53857143 L22.7771429,23.5142857 L36.8642857,23.5142857 L36.8628571,23.5142857 Z M14.5085714,7.19714286 C14.5085714,4.59714286 12.8885714,2.63 10.6257143,2.49142857 L2.01714286,2.49142857 L2.01714286,12.04 L2.85428571,12.04 L2.85428571,12.0357143 L5.29285714,12.0357143 L5.29285714,12.04 L10.4714286,12.04 C12.7714286,12.04 14.5085714,9.85142857 14.5085714,7.19714286 L14.5085714,7.19714286 Z M14.9971429,11.7914286 C13.98,12.9885714 12.6,13.7714286 11.0042857,13.91 L18.6371429,23.5157143 L16.1042857,23.5157143 L8.47285714,13.9671429 L2.01571429,13.9671429 L2.01571429,22.7742857 C2.01571429,23.3371429 1.55285714,23.7528571 0.997142857,23.7528571 C0.73460202,23.7599077 0.480574607,23.6594069 0.293921616,23.4746421 C0.107268624,23.2898772 0.00419043835,23.0368847 0.00857142857,22.7742857 L0.00843726953,0.562857143 L10.4057143,0.562857143 C13.9257143,0.562857143 16.58,3.41571429 16.58,7.19714286 C16.58,8.95714286 16.0171429,10.59 14.9971429,11.7914286 Z M61.8271429,23.5157143 L64.2,23.5157143 L53.5742857,1.06428571 C53.3754295,0.693581109 52.9906467,0.460412612 52.57,0.455714286 L52.54,0.455714286 C52.1199974,0.460032769 51.7356684,0.692710609 51.5371429,1.06285714 L40.9028571,23.5128571 L43.2585714,23.5128571 L52.4957143,3.95428571 L52.5557143,3.83 L52.6128571,3.95428571 L61.8271429,23.5157143 L61.8271429,23.5157143 Z" id="Shape" fill="#FFFFFF"/>
            <path d="M147.871429,21.5 L147.871429,23.4671429 L130.084286,23.4671429 C129.855714,23.4671429 129.524286,23.4457143 129.288571,23.2628571 C129.062257,23.0975753 128.911522,22.8485786 128.87,22.5714286 C128.831997,22.2930819 128.90712,22.0111145 129.078571,21.7885714 L144.642857,2.57142857 L130.081429,2.57142857 C129.467143,2.57142857 128.988571,2.13857143 128.988571,1.58571429 C128.988571,1.03571429 129.468571,0.602857143 130.081429,0.602857143 L146.655714,0.602857143 C146.927143,0.602857143 147.212857,0.627142857 147.47,0.801428571 C147.712857,0.98 147.864286,1.23 147.898571,1.50714286 C147.928902,1.789776 147.840418,2.07230296 147.654286,2.28714286 L132.152857,21.4285714 L132.095714,21.5 L147.871429,21.5 L147.871429,21.5 Z M93.9071429,23.5028571 L96.3285714,23.5028571 L105.535714,3.95714286 L105.575714,3.87428571 L105.614286,3.95714286 L114.7,23.1714286 C114.824286,23.4771429 115.21,23.7857143 115.707143,23.7857143 C116.205714,23.7857143 116.571429,23.4857143 116.711429,23.1885714 L126.817143,1.81571429 C127.019538,1.29780103 126.767207,0.713489489 126.251429,0.505714286 C126.120924,0.454115463 125.981762,0.42793156 125.841429,0.428571429 C125.4,0.428571429 124.987143,0.671428571 124.835714,1.02 L115.735714,20.2628571 L115.697143,20.3442857 L115.658571,20.2628571 L106.578571,1.01142857 C106.366309,0.664631122 105.993552,0.448174466 105.587143,0.435714286 C105.145272,0.426566323 104.736319,0.66839598 104.531429,1.06 L93.9071429,23.5028571 L93.9071429,23.5028571 Z" id="Shape" fill="#00B9E4" opacity="0.849999964"/>
        </g>
    </g>
</svg>